<?xml version="1.0"?>
<svg xmlns="http://www.w3.org/2000/svg" xmlns:xlink="http://www.w3.org/1999/xlink" version="1.1" width="320px" height="320px" viewBox="0 0 320 320"><rect x="0" y="0" width="320" height="320" fill="#ffffff" fill-opacity="1"/><path fill="#000000" fill-opacity="1" d="M16,16L65,16L65,23L16,23ZM72,16L93,16L93,23L72,23ZM107,16L135,16L135,23L107,23ZM170,16L177,16L177,23L170,23ZM184,16L212,16L212,23L184,23ZM254,16L303,16L303,23L254,23ZM16,23L23,23L23,30L16,30ZM58,23L65,23L65,30L58,30ZM72,23L86,23L86,30L72,30ZM100,23L121,23L121,30L100,30ZM142,23L156,23L156,30L142,30ZM163,23L177,23L177,30L163,30ZM184,23L191,23L191,30L184,30ZM212,23L219,23L219,30L212,30ZM233,23L247,23L247,30L233,30ZM254,23L261,23L261,30L254,30ZM296,23L303,23L303,30L296,30ZM16,30L23,30L23,37L16,37ZM30,30L51,30L51,37L30,37ZM58,30L65,30L65,37L58,37ZM72,30L107,30L107,37L72,37ZM114,30L128,30L128,37L114,37ZM135,30L156,30L156,37L135,37ZM170,30L191,30L191,37L170,37ZM198,30L205,30L205,37L198,37ZM226,30L247,30L247,37L226,37ZM254,30L261,30L261,37L254,37ZM268,30L289,30L289,37L268,37ZM296,30L303,30L303,37L296,37ZM16,37L23,37L23,44L16,44ZM30,37L51,37L51,44L30,44ZM58,37L65,37L65,44L58,44ZM72,37L79,37L79,44L72,44ZM86,37L107,37L107,44L86,44ZM121,37L142,37L142,44L121,44ZM163,37L212,37L212,44L163,44ZM219,37L226,37L226,44L219,44ZM240,37L247,37L247,44L240,44ZM254,37L261,37L261,44L254,44ZM268,37L289,37L289,44L268,44ZM296,37L303,37L303,44L296,44ZM16,44L23,44L23,51L16,51ZM30,44L51,44L51,51L30,51ZM58,44L65,44L65,51L58,51ZM79,44L86,44L86,51L79,51ZM93,44L100,44L100,51L93,51ZM107,44L114,44L114,51L107,51ZM128,44L135,44L135,51L128,51ZM149,44L156,44L156,51L149,51ZM191,44L198,44L198,51L191,51ZM212,44L219,44L219,51L212,51ZM233,44L240,44L240,51L233,51ZM254,44L261,44L261,51L254,51ZM268,44L289,44L289,51L268,51ZM296,44L303,44L303,51L296,51ZM16,51L23,51L23,58L16,58ZM58,51L65,51L65,58L58,58ZM72,51L79,51L79,58L72,58ZM100,51L114,51L114,58L100,58ZM121,51L128,51L128,58L121,58ZM156,51L163,51L163,58L156,58ZM170,51L184,51L184,58L170,58ZM219,51L226,51L226,58L219,58ZM233,51L240,51L240,58L233,58ZM254,51L261,51L261,58L254,58ZM296,51L303,51L303,58L296,58ZM16,58L65,58L65,65L16,65ZM72,58L79,58L79,65L72,65ZM86,58L93,58L93,65L86,65ZM100,58L107,58L107,65L100,65ZM114,58L121,58L121,65L114,65ZM128,58L135,58L135,65L128,65ZM142,58L149,58L149,65L142,65ZM156,58L163,58L163,65L156,65ZM170,58L177,58L177,65L170,65ZM184,58L191,58L191,65L184,65ZM198,58L205,58L205,65L198,65ZM212,58L219,58L219,65L212,65ZM226,58L233,58L233,65L226,65ZM240,58L247,58L247,65L240,65ZM254,58L303,58L303,65L254,65ZM86,65L121,65L121,72L86,72ZM142,65L163,65L163,72L142,72ZM170,65L177,65L177,72L170,72ZM191,65L198,65L198,72L191,72ZM233,65L247,65L247,72L233,72ZM16,72L30,72L30,79L16,79ZM44,72L65,72L65,79L44,79ZM79,72L86,72L86,79L79,79ZM93,72L135,72L135,79L93,79ZM142,72L149,72L149,79L142,79ZM184,72L198,72L198,79L184,79ZM212,72L219,72L219,79L212,79ZM233,72L240,72L240,79L233,79ZM261,72L268,72L268,79L261,79ZM275,72L303,72L303,79L275,79ZM23,79L37,79L37,86L23,86ZM65,79L72,79L72,86L65,86ZM79,79L86,79L86,86L79,86ZM93,79L100,79L100,86L93,86ZM128,79L149,79L149,86L128,86ZM170,79L184,79L184,86L170,86ZM191,79L198,79L198,86L191,86ZM205,79L219,79L219,86L205,86ZM226,79L233,79L233,86L226,86ZM261,79L275,79L275,86L261,86ZM282,79L303,79L303,86L282,86ZM23,86L37,86L37,93L23,93ZM44,86L51,86L51,93L44,93ZM58,86L79,86L79,93L58,93ZM93,86L135,86L135,93L93,93ZM142,86L163,86L163,93L142,93ZM177,86L184,86L184,93L177,93ZM191,86L205,86L205,93L191,93ZM212,86L219,86L219,93L212,93ZM226,86L240,86L240,93L226,93ZM247,86L289,86L289,93L247,93ZM30,93L37,93L37,100L30,100ZM44,93L51,93L51,100L44,100ZM65,93L72,93L72,100L65,100ZM79,93L86,93L86,100L79,100ZM93,93L100,93L100,100L93,100ZM107,93L114,93L114,100L107,100ZM121,93L128,93L128,100L121,100ZM156,93L191,93L191,100L156,100ZM219,93L226,93L226,100L219,100ZM233,93L247,93L247,100L233,100ZM275,93L282,93L282,100L275,100ZM296,93L303,93L303,100L296,100ZM44,100L51,100L51,107L44,107ZM58,100L65,100L65,107L58,107ZM79,100L100,100L100,107L79,107ZM107,100L114,100L114,107L107,107ZM128,100L135,100L135,107L128,107ZM149,100L156,100L156,107L149,107ZM170,100L177,100L177,107L170,107ZM184,100L191,100L191,107L184,107ZM212,100L219,100L219,107L212,107ZM226,100L240,100L240,107L226,107ZM247,100L254,100L254,107L247,107ZM268,100L296,100L296,107L268,107ZM16,107L23,107L23,114L16,114ZM37,107L44,107L44,114L37,114ZM65,107L86,107L86,114L65,114ZM100,107L121,107L121,114L100,114ZM142,107L163,107L163,114L142,114ZM170,107L177,107L177,114L170,114ZM184,107L205,107L205,114L184,114ZM254,107L275,107L275,114L254,114ZM282,107L289,107L289,114L282,114ZM44,114L72,114L72,121L44,121ZM93,114L128,114L128,121L93,121ZM142,114L149,114L149,121L142,121ZM156,114L163,114L163,121L156,121ZM177,114L205,114L205,121L177,121ZM212,114L219,114L219,121L212,121ZM226,114L233,114L233,121L226,121ZM240,114L247,114L247,121L240,121ZM254,114L296,114L296,121L254,121ZM37,121L51,121L51,128L37,128ZM79,121L86,121L86,128L79,128ZM93,121L100,121L100,128L93,128ZM107,121L114,121L114,128L107,128ZM121,121L142,121L142,128L121,128ZM163,121L170,121L170,128L163,128ZM184,121L191,121L191,128L184,128ZM198,121L205,121L205,128L198,128ZM219,121L226,121L226,128L219,128ZM233,121L240,121L240,128L233,128ZM247,121L254,121L254,128L247,128ZM282,121L296,121L296,128L282,128ZM16,128L23,128L23,135L16,135ZM37,128L93,128L93,135L37,135ZM128,128L156,128L156,135L128,135ZM198,128L205,128L205,135L198,135ZM233,128L240,128L240,135L233,135ZM247,128L268,128L268,135L247,135ZM275,128L282,128L282,135L275,135ZM289,128L296,128L296,135L289,135ZM23,135L44,135L44,142L23,142ZM51,135L58,135L58,142L51,142ZM72,135L79,135L79,142L72,142ZM100,135L135,135L135,142L100,142ZM149,135L156,135L156,142L149,142ZM184,135L198,135L198,142L184,142ZM205,135L219,135L219,142L205,142ZM247,135L268,135L268,142L247,142ZM282,135L289,135L289,142L282,142ZM58,142L79,142L79,149L58,149ZM86,142L107,142L107,149L86,149ZM135,142L142,142L142,149L135,149ZM149,142L156,142L156,149L149,149ZM177,142L240,142L240,149L177,149ZM247,142L296,142L296,149L247,149ZM16,149L37,149L37,156L16,156ZM44,149L51,149L51,156L44,156ZM65,149L79,149L79,156L65,156ZM86,149L93,149L93,156L86,156ZM100,149L107,149L107,156L100,156ZM114,149L128,149L128,156L114,156ZM135,149L149,149L149,156L135,156ZM156,149L177,149L177,156L156,156ZM191,149L198,149L198,156L191,156ZM219,149L226,149L226,156L219,156ZM233,149L254,149L254,156L233,156ZM261,149L268,149L268,156L261,156ZM275,149L282,149L282,156L275,156ZM289,149L303,149L303,156L289,156ZM16,156L23,156L23,163L16,163ZM30,156L51,156L51,163L30,163ZM58,156L79,156L79,163L58,163ZM100,156L121,156L121,163L100,163ZM142,156L163,156L163,163L142,163ZM219,156L226,156L226,163L219,163ZM233,156L240,156L240,163L233,163ZM247,156L261,156L261,163L247,163ZM275,156L296,156L296,163L275,163ZM23,163L30,163L30,170L23,170ZM65,163L86,163L86,170L65,170ZM107,163L114,163L114,170L107,170ZM128,163L135,163L135,170L128,170ZM149,163L156,163L156,170L149,170ZM170,163L198,163L198,170L170,170ZM205,163L219,163L219,170L205,170ZM226,163L233,163L233,170L226,170ZM240,163L254,163L254,170L240,170ZM268,163L275,163L275,170L268,170ZM282,163L289,163L289,170L282,170ZM296,163L303,163L303,170L296,170ZM23,170L30,170L30,177L23,177ZM44,170L51,170L51,177L44,177ZM58,170L65,170L65,177L58,177ZM107,170L114,170L114,177L107,177ZM128,170L135,170L135,177L128,177ZM149,170L156,170L156,177L149,177ZM163,170L170,170L170,177L163,177ZM177,170L198,170L198,177L177,177ZM205,170L212,170L212,177L205,177ZM233,170L240,170L240,177L233,177ZM254,170L261,170L261,177L254,177ZM275,170L282,170L282,177L275,177ZM16,177L23,177L23,184L16,184ZM37,177L44,177L44,184L37,184ZM51,177L58,177L58,184L51,184ZM72,177L79,177L79,184L72,184ZM86,177L93,177L93,184L86,184ZM100,177L121,177L121,184L100,184ZM135,177L170,177L170,184L135,184ZM184,177L198,177L198,184L184,184ZM233,177L254,177L254,184L233,184ZM289,177L296,177L296,184L289,184ZM16,184L37,184L37,191L16,191ZM51,184L65,184L65,191L51,191ZM79,184L135,184L135,191L79,191ZM142,184L149,184L149,191L142,191ZM156,184L163,184L163,191L156,191ZM212,184L226,184L226,191L212,191ZM233,184L240,184L240,191L233,191ZM261,184L268,184L268,191L261,191ZM289,184L296,184L296,191L289,191ZM16,191L51,191L51,198L16,198ZM65,191L79,191L79,198L65,198ZM86,191L93,191L93,198L86,198ZM114,191L121,191L121,198L114,198ZM135,191L149,191L149,198L135,198ZM156,191L163,191L163,198L156,198ZM170,191L184,191L184,198L170,198ZM191,191L198,191L198,198L191,198ZM205,191L219,191L219,198L205,198ZM226,191L233,191L233,198L226,198ZM247,191L268,191L268,198L247,198ZM282,191L289,191L289,198L282,198ZM296,191L303,191L303,198L296,198ZM23,198L37,198L37,205L23,205ZM58,198L65,198L65,205L58,205ZM72,198L79,198L79,205L72,205ZM86,198L100,198L100,205L86,205ZM107,198L121,198L121,205L107,205ZM142,198L163,198L163,205L142,205ZM191,198L205,198L205,205L191,205ZM212,198L219,198L219,205L212,205ZM226,198L233,198L233,205L226,205ZM254,198L289,198L289,205L254,205ZM296,198L303,198L303,205L296,205ZM16,205L44,205L44,212L16,212ZM72,205L114,205L114,212L72,212ZM121,205L128,205L128,212L121,212ZM149,205L177,205L177,212L149,212ZM198,205L205,205L205,212L198,212ZM212,205L219,205L219,212L212,212ZM233,205L247,205L247,212L233,212ZM254,205L268,205L268,212L254,212ZM289,205L303,205L303,212L289,212ZM16,212L23,212L23,219L16,219ZM30,212L37,212L37,219L30,219ZM44,212L72,212L72,219L44,219ZM86,212L93,212L93,219L86,219ZM107,212L114,212L114,219L107,219ZM128,212L135,212L135,219L128,219ZM149,212L163,212L163,219L149,219ZM170,212L177,212L177,219L170,219ZM198,212L205,212L205,219L198,219ZM212,212L219,212L219,219L212,219ZM233,212L254,212L254,219L233,219ZM275,212L296,212L296,219L275,219ZM16,219L23,219L23,226L16,226ZM37,219L44,219L44,226L37,226ZM51,219L58,219L58,226L51,226ZM86,219L93,219L93,226L86,226ZM100,219L121,219L121,226L100,226ZM142,219L163,219L163,226L142,226ZM191,219L219,219L219,226L191,226ZM247,219L275,219L275,226L247,226ZM282,219L289,219L289,226L282,226ZM30,226L44,226L44,233L30,233ZM58,226L65,226L65,233L58,233ZM72,226L86,226L86,233L72,233ZM93,226L107,226L107,233L93,233ZM114,226L128,226L128,233L114,233ZM163,226L170,226L170,233L163,233ZM177,226L205,226L205,233L177,233ZM212,226L219,226L219,233L212,233ZM226,226L233,226L233,233L226,233ZM240,226L247,226L247,233L240,233ZM254,226L261,226L261,233L254,233ZM282,226L289,226L289,233L282,233ZM296,226L303,226L303,233L296,233ZM30,233L37,233L37,240L30,240ZM44,233L58,233L58,240L44,240ZM65,233L72,233L72,240L65,240ZM79,233L100,233L100,240L79,240ZM107,233L114,233L114,240L107,240ZM121,233L149,233L149,240L121,240ZM170,233L177,233L177,240L170,240ZM184,233L191,233L191,240L184,240ZM212,233L226,233L226,240L212,240ZM233,233L247,233L247,240L233,240ZM275,233L296,233L296,240L275,240ZM16,240L30,240L30,247L16,247ZM37,240L44,240L44,247L37,247ZM58,240L93,240L93,247L58,247ZM135,240L156,240L156,247L135,247ZM170,240L177,240L177,247L170,247ZM191,240L198,240L198,247L191,247ZM212,240L282,240L282,247L212,247ZM296,240L303,240L303,247L296,247ZM72,247L79,247L79,254L72,254ZM93,247L121,247L121,254L93,254ZM128,247L135,247L135,254L128,254ZM156,247L163,247L163,254L156,254ZM191,247L205,247L205,254L191,254ZM212,247L219,247L219,254L212,254ZM233,247L247,247L247,254L233,254ZM268,247L275,247L275,254L268,254ZM282,247L289,247L289,254L282,254ZM296,247L303,247L303,254L296,254ZM16,254L65,254L65,261L16,261ZM79,254L86,254L86,261L79,261ZM93,254L107,254L107,261L93,261ZM121,254L128,254L128,261L121,261ZM135,254L142,254L142,261L135,261ZM177,254L184,254L184,261L177,261ZM191,254L205,254L205,261L191,261ZM212,254L219,254L219,261L212,261ZM226,254L247,254L247,261L226,261ZM254,254L261,254L261,261L254,261ZM268,254L289,254L289,261L268,261ZM16,261L23,261L23,268L16,268ZM58,261L65,261L65,268L58,268ZM72,261L79,261L79,268L72,268ZM114,261L121,261L121,268L114,268ZM128,261L177,261L177,268L128,268ZM184,261L198,261L198,268L184,268ZM226,261L247,261L247,268L226,268ZM268,261L275,261L275,268L268,268ZM289,261L303,261L303,268L289,268ZM16,268L23,268L23,275L16,275ZM30,268L51,268L51,275L30,275ZM58,268L65,268L65,275L58,275ZM72,268L93,268L93,275L72,275ZM100,268L121,268L121,275L100,275ZM142,268L163,268L163,275L142,275ZM170,268L177,268L177,275L170,275ZM191,268L198,268L198,275L191,275ZM212,268L219,268L219,275L212,275ZM226,268L233,268L233,275L226,275ZM240,268L275,268L275,275L240,275ZM289,268L296,268L296,275L289,275ZM16,275L23,275L23,282L16,282ZM30,275L51,275L51,282L30,282ZM58,275L65,275L65,282L58,282ZM107,275L114,275L114,282L107,282ZM128,275L135,275L135,282L128,282ZM156,275L163,275L163,282L156,282ZM170,275L184,275L184,282L170,282ZM191,275L198,275L198,282L191,282ZM233,275L240,275L240,282L233,282ZM282,275L296,275L296,282L282,282ZM16,282L23,282L23,289L16,289ZM30,282L51,282L51,289L30,289ZM58,282L65,282L65,289L58,289ZM86,282L93,282L93,289L86,289ZM107,282L121,282L121,289L107,289ZM128,282L149,282L149,289L128,289ZM156,282L170,282L170,289L156,289ZM184,282L198,282L198,289L184,289ZM205,282L219,282L219,289L205,289ZM226,282L233,282L233,289L226,289ZM261,282L275,282L275,289L261,289ZM289,282L303,282L303,289L289,289ZM16,289L23,289L23,296L16,296ZM58,289L65,289L65,296L58,296ZM72,289L79,289L79,296L72,296ZM100,289L107,289L107,296L100,296ZM114,289L121,289L121,296L114,296ZM135,289L170,289L170,296L135,296ZM191,289L198,289L198,296L191,296ZM205,289L212,289L212,296L205,296ZM233,289L247,289L247,296L233,296ZM254,289L261,289L261,296L254,296ZM268,289L289,289L289,296L268,296ZM16,296L65,296L65,303L16,303ZM72,296L79,296L79,303L72,303ZM86,296L100,296L100,303L86,303ZM121,296L156,296L156,303L121,303ZM163,296L170,296L170,303L163,303ZM212,296L226,296L226,303L212,303ZM233,296L247,296L247,303L233,303ZM254,296L261,296L261,303L254,303ZM268,296L275,296L275,303L268,303ZM282,296L296,296L296,303L282,303Z"/></svg>
