<?xml version="1.0"?>
<svg xmlns="http://www.w3.org/2000/svg" xmlns:xlink="http://www.w3.org/1999/xlink" version="1.1" width="320px" height="320px" viewBox="0 0 320 320"><rect x="0" y="0" width="320" height="320" fill="#ffffff" fill-opacity="1"/><path fill="#000000" fill-opacity="1" d="M11,11L74,11L74,20L11,20ZM83,11L92,11L92,20L83,20ZM101,11L110,11L110,20L101,20ZM119,11L155,11L155,20L119,20ZM173,11L182,11L182,20L173,20ZM200,11L209,11L209,20L200,20ZM227,11L236,11L236,20L227,20ZM245,11L308,11L308,20L245,20ZM11,20L20,20L20,29L11,29ZM65,20L74,20L74,29L65,29ZM92,20L137,20L137,29L92,29ZM155,20L164,20L164,29L155,29ZM200,20L236,20L236,29L200,29ZM245,20L254,20L254,29L245,29ZM299,20L308,20L308,29L299,29ZM11,29L20,29L20,38L11,38ZM29,29L56,29L56,38L29,38ZM65,29L74,29L74,38L65,38ZM83,29L110,29L110,38L83,38ZM155,29L164,29L164,38L155,38ZM173,29L182,29L182,38L173,38ZM218,29L236,29L236,38L218,38ZM245,29L254,29L254,38L245,38ZM263,29L290,29L290,38L263,38ZM299,29L308,29L308,38L299,38ZM11,38L20,38L20,47L11,47ZM29,38L56,38L56,47L29,47ZM65,38L74,38L74,47L65,47ZM83,38L110,38L110,47L83,47ZM119,38L128,38L128,47L119,47ZM137,38L155,38L155,47L137,47ZM173,38L182,38L182,47L173,47ZM191,38L200,38L200,47L191,47ZM245,38L254,38L254,47L245,47ZM263,38L290,38L290,47L263,47ZM299,38L308,38L308,47L299,47ZM11,47L20,47L20,56L11,56ZM29,47L56,47L56,56L29,56ZM65,47L74,47L74,56L65,56ZM83,47L92,47L92,56L83,56ZM110,47L128,47L128,56L110,56ZM137,47L146,47L146,56L137,56ZM155,47L173,47L173,56L155,56ZM191,47L200,47L200,56L191,56ZM227,47L236,47L236,56L227,56ZM245,47L254,47L254,56L245,56ZM263,47L290,47L290,56L263,56ZM299,47L308,47L308,56L299,56ZM11,56L20,56L20,65L11,65ZM65,56L74,56L74,65L65,65ZM101,56L119,56L119,65L101,65ZM128,56L137,56L137,65L128,65ZM146,56L173,56L173,65L146,65ZM182,56L209,56L209,65L182,65ZM218,56L227,56L227,65L218,65ZM245,56L254,56L254,65L245,65ZM299,56L308,56L308,65L299,65ZM11,65L74,65L74,74L11,74ZM83,65L92,65L92,74L83,74ZM101,65L110,65L110,74L101,74ZM119,65L128,65L128,74L119,74ZM137,65L146,65L146,74L137,74ZM155,65L164,65L164,74L155,74ZM173,65L182,65L182,74L173,74ZM191,65L200,65L200,74L191,74ZM209,65L218,65L218,74L209,74ZM227,65L236,65L236,74L227,74ZM245,65L308,65L308,74L245,74ZM101,74L110,74L110,83L101,83ZM119,74L128,74L128,83L119,83ZM146,74L209,74L209,83L146,83ZM11,83L47,83L47,92L11,92ZM65,83L74,83L74,92L65,92ZM83,83L92,83L92,92L83,92ZM101,83L137,83L137,92L101,92ZM146,83L164,83L164,92L146,92ZM182,83L209,83L209,92L182,92ZM227,83L245,83L245,92L227,92ZM263,83L290,83L290,92L263,92ZM299,83L308,83L308,92L299,92ZM38,92L47,92L47,101L38,101ZM56,92L65,92L65,101L56,101ZM83,92L92,92L92,101L83,101ZM101,92L110,92L110,101L101,101ZM119,92L155,92L155,101L119,101ZM173,92L182,92L182,101L173,101ZM191,92L218,92L218,101L191,101ZM236,92L245,92L245,101L236,101ZM254,92L263,92L263,101L254,101ZM272,92L290,92L290,101L272,101ZM11,101L20,101L20,110L11,110ZM29,101L38,101L38,110L29,110ZM47,101L74,101L74,110L47,110ZM83,101L137,101L137,110L83,110ZM182,101L191,101L191,110L182,110ZM200,101L218,101L218,110L200,110ZM236,101L254,101L254,110L236,110ZM263,101L272,101L272,110L263,110ZM281,101L308,101L308,110L281,110ZM29,110L56,110L56,119L29,119ZM74,110L110,110L110,119L74,119ZM155,110L164,110L164,119L155,119ZM173,110L182,110L182,119L173,119ZM209,110L272,110L272,119L209,119ZM299,110L308,110L308,119L299,119ZM20,119L38,119L38,128L20,128ZM65,119L74,119L74,128L65,128ZM92,119L110,119L110,128L92,128ZM119,119L128,119L128,128L119,128ZM137,119L155,119L155,128L137,128ZM164,119L173,119L173,128L164,128ZM209,119L218,119L218,128L209,128ZM254,119L272,119L272,128L254,128ZM281,119L299,119L299,128L281,128ZM11,128L38,128L38,137L11,137ZM56,128L65,128L65,137L56,137ZM74,128L83,128L83,137L74,137ZM92,128L101,128L101,137L92,137ZM110,128L128,128L128,137L110,137ZM137,128L146,128L146,137L137,137ZM155,128L173,128L173,137L155,137ZM227,128L245,128L245,137L227,137ZM254,128L263,128L263,137L254,137ZM299,128L308,128L308,137L299,137ZM20,137L29,137L29,146L20,146ZM65,137L119,137L119,146L65,146ZM128,137L137,137L137,146L128,146ZM164,137L173,137L173,146L164,146ZM182,137L191,137L191,146L182,146ZM200,137L209,137L209,146L200,146ZM218,137L227,137L227,146L218,146ZM272,137L290,137L290,146L272,146ZM11,146L20,146L20,155L11,155ZM29,146L38,146L38,155L29,155ZM47,146L56,146L56,155L47,155ZM83,146L92,146L92,155L83,155ZM110,146L119,146L119,155L110,155ZM137,146L146,146L146,155L137,155ZM182,146L200,146L200,155L182,155ZM218,146L227,146L227,155L218,155ZM245,146L254,146L254,155L245,155ZM281,146L308,146L308,155L281,155ZM29,155L38,155L38,164L29,164ZM47,155L56,155L56,164L47,164ZM65,155L92,155L92,164L65,164ZM119,155L128,155L128,164L119,164ZM137,155L146,155L146,164L137,164ZM155,155L173,155L173,164L155,164ZM218,155L254,155L254,164L218,164ZM263,155L272,155L272,164L263,164ZM281,155L308,155L308,164L281,164ZM20,164L29,164L29,173L20,173ZM56,164L65,164L65,173L56,173ZM101,164L110,164L110,173L101,173ZM137,164L146,164L146,173L137,173ZM173,164L191,164L191,173L173,173ZM218,164L227,164L227,173L218,173ZM254,164L263,164L263,173L254,173ZM290,164L299,164L299,173L290,173ZM20,173L29,173L29,182L20,182ZM38,173L74,173L74,182L38,182ZM128,173L191,173L191,182L128,182ZM209,173L218,173L218,182L209,182ZM227,173L245,173L245,182L227,182ZM254,173L281,173L281,182L254,182ZM299,173L308,173L308,182L299,182ZM83,182L92,182L92,191L83,191ZM110,182L119,182L119,191L110,191ZM128,182L155,182L155,191L128,191ZM164,182L191,182L191,191L164,191ZM200,182L209,182L209,191L200,191ZM227,182L236,182L236,191L227,191ZM272,182L290,182L290,191L272,191ZM29,191L47,191L47,200L29,200ZM65,191L74,191L74,200L65,200ZM101,191L110,191L110,200L101,200ZM128,191L146,191L146,200L128,200ZM155,191L164,191L164,200L155,200ZM182,191L200,191L200,200L182,200ZM236,191L245,191L245,200L236,200ZM281,191L290,191L290,200L281,200ZM11,200L20,200L20,209L11,209ZM29,200L47,200L47,209L29,209ZM56,200L65,200L65,209L56,209ZM92,200L110,200L110,209L92,209ZM155,200L164,200L164,209L155,209ZM173,200L209,200L209,209L173,209ZM218,200L227,200L227,209L218,209ZM245,200L263,200L263,209L245,209ZM281,200L308,200L308,209L281,209ZM29,209L47,209L47,218L29,218ZM65,209L101,209L101,218L65,218ZM137,209L146,209L146,218L137,218ZM155,209L164,209L164,218L155,218ZM182,209L191,209L191,218L182,218ZM200,209L218,209L218,218L200,218ZM236,209L254,209L254,218L236,218ZM263,209L308,209L308,218L263,218ZM20,218L29,218L29,227L20,227ZM38,218L56,218L56,227L38,227ZM74,218L83,218L83,227L74,227ZM110,218L182,218L182,227L110,227ZM209,218L227,218L227,227L209,227ZM236,218L290,218L290,227L236,227ZM299,218L308,218L308,227L299,227ZM11,227L20,227L20,236L11,236ZM29,227L38,227L38,236L29,236ZM65,227L74,227L74,236L65,236ZM83,227L119,227L119,236L83,236ZM146,227L164,227L164,236L146,236ZM173,227L182,227L182,236L173,236ZM200,227L218,227L218,236L200,236ZM227,227L281,227L281,236L227,236ZM83,236L92,236L92,245L83,245ZM101,236L119,236L119,245L101,245ZM128,236L137,236L137,245L128,245ZM155,236L173,236L173,245L155,245ZM191,236L200,236L200,245L191,245ZM209,236L218,236L218,245L209,245ZM227,236L236,236L236,245L227,245ZM263,236L281,236L281,245L263,245ZM299,236L308,236L308,245L299,245ZM11,245L74,245L74,254L11,254ZM92,245L101,245L101,254L92,254ZM119,245L128,245L128,254L119,254ZM137,245L146,245L146,254L137,254ZM164,245L173,245L173,254L164,254ZM182,245L236,245L236,254L182,254ZM245,245L254,245L254,254L245,254ZM263,245L272,245L272,254L263,254ZM281,245L290,245L290,254L281,254ZM11,254L20,254L20,263L11,263ZM65,254L74,254L74,263L65,263ZM92,254L110,254L110,263L92,263ZM119,254L137,254L137,263L119,263ZM164,254L173,254L173,263L164,263ZM182,254L200,254L200,263L182,263ZM227,254L236,254L236,263L227,263ZM263,254L281,254L281,263L263,263ZM299,254L308,254L308,263L299,263ZM11,263L20,263L20,272L11,272ZM29,263L56,263L56,272L29,272ZM65,263L74,263L74,272L65,272ZM92,263L119,263L119,272L92,272ZM164,263L173,263L173,272L164,272ZM191,263L218,263L218,272L191,272ZM227,263L272,263L272,272L227,272ZM281,263L290,263L290,272L281,272ZM11,272L20,272L20,281L11,281ZM29,272L56,272L56,281L29,281ZM65,272L74,272L74,281L65,281ZM83,272L110,272L110,281L83,281ZM119,272L137,272L137,281L119,281ZM173,272L191,272L191,281L173,281ZM209,272L218,272L218,281L209,281ZM227,272L236,272L236,281L227,281ZM245,272L281,272L281,281L245,281ZM11,281L20,281L20,290L11,290ZM29,281L56,281L56,290L29,290ZM65,281L74,281L74,290L65,290ZM83,281L92,281L92,290L83,290ZM110,281L128,281L128,290L110,290ZM146,281L191,281L191,290L146,290ZM209,281L254,281L254,290L209,290ZM272,281L281,281L281,290L272,290ZM11,290L20,290L20,299L11,299ZM65,290L74,290L74,299L65,299ZM83,290L92,290L92,299L83,299ZM101,290L110,290L110,299L101,299ZM119,290L128,290L128,299L119,299ZM146,290L155,290L155,299L146,299ZM164,290L191,290L191,299L164,299ZM209,290L218,290L218,299L209,299ZM227,290L254,290L254,299L227,299ZM263,290L272,290L272,299L263,299ZM290,290L299,290L299,299L290,299ZM11,299L74,299L74,308L11,308ZM83,299L137,299L137,308L83,308ZM155,299L191,299L191,308L155,308ZM209,299L290,299L290,308L209,308Z"/></svg>
