<?xml version="1.0"?>
<svg xmlns="http://www.w3.org/2000/svg" xmlns:xlink="http://www.w3.org/1999/xlink" version="1.1" width="320px" height="320px" viewBox="0 0 320 320"><rect x="0" y="0" width="320" height="320" fill="#ffffff" fill-opacity="1"/><path fill="#000000" fill-opacity="1" d="M15,15L85,15L85,25L15,25ZM105,15L115,15L115,25L105,25ZM155,15L165,15L165,25L155,25ZM175,15L185,15L185,25L175,25ZM195,15L215,15L215,25L195,25ZM235,15L305,15L305,25L235,25ZM15,25L25,25L25,35L15,35ZM75,25L85,25L85,35L75,35ZM95,25L115,25L115,35L95,35ZM125,25L145,25L145,35L125,35ZM185,25L195,25L195,35L185,35ZM205,25L215,25L215,35L205,35ZM235,25L245,25L245,35L235,35ZM295,25L305,25L305,35L295,35ZM15,35L25,35L25,45L15,45ZM35,35L65,35L65,45L35,45ZM75,35L85,35L85,45L75,45ZM105,35L135,35L135,45L105,45ZM195,35L225,35L225,45L195,45ZM235,35L245,35L245,45L235,45ZM255,35L285,35L285,45L255,45ZM295,35L305,35L305,45L295,45ZM15,45L25,45L25,55L15,55ZM35,45L65,45L65,55L35,55ZM75,45L85,45L85,55L75,55ZM95,45L115,45L115,55L95,55ZM125,45L135,45L135,55L125,55ZM165,45L185,45L185,55L165,55ZM215,45L225,45L225,55L215,55ZM235,45L245,45L245,55L235,55ZM255,45L285,45L285,55L255,55ZM295,45L305,45L305,55L295,55ZM15,55L25,55L25,65L15,65ZM35,55L65,55L65,65L35,65ZM75,55L85,55L85,65L75,65ZM115,55L125,55L125,65L115,65ZM135,55L155,55L155,65L135,65ZM165,55L185,55L185,65L165,65ZM235,55L245,55L245,65L235,65ZM255,55L285,55L285,65L255,65ZM295,55L305,55L305,65L295,65ZM15,65L25,65L25,75L15,75ZM75,65L85,65L85,75L75,75ZM95,65L105,65L105,75L95,75ZM115,65L125,65L125,75L115,75ZM145,65L175,65L175,75L145,75ZM185,65L195,65L195,75L185,75ZM205,65L215,65L215,75L205,75ZM235,65L245,65L245,75L235,75ZM295,65L305,65L305,75L295,75ZM15,75L85,75L85,85L15,85ZM95,75L105,75L105,85L95,85ZM115,75L125,75L125,85L115,85ZM135,75L145,75L145,85L135,85ZM155,75L165,75L165,85L155,85ZM175,75L185,75L185,85L175,85ZM195,75L205,75L205,85L195,85ZM215,75L225,75L225,85L215,85ZM235,75L305,75L305,85L235,85ZM135,85L155,85L155,95L135,95ZM175,85L185,85L185,95L175,95ZM205,85L225,85L225,95L205,95ZM15,95L65,95L65,105L15,105ZM75,95L125,95L125,105L75,105ZM135,95L145,95L145,105L135,105ZM155,95L175,95L175,105L155,105ZM215,95L235,95L235,105L215,105ZM245,95L255,95L255,105L245,105ZM265,95L275,95L275,105L265,105ZM285,95L295,95L295,105L285,105ZM25,105L35,105L35,115L25,115ZM45,105L75,105L75,115L45,115ZM85,105L115,105L115,115L85,115ZM165,105L185,105L185,115L165,115ZM205,105L225,105L225,115L205,115ZM245,105L275,105L275,115L245,115ZM285,105L295,105L295,115L285,115ZM15,115L25,115L25,125L15,125ZM45,115L95,115L95,125L45,125ZM105,115L115,115L115,125L105,125ZM125,115L145,115L145,125L125,125ZM165,115L195,115L195,125L165,125ZM205,115L215,115L215,125L205,125ZM265,115L285,115L285,125L265,125ZM15,125L25,125L25,135L15,135ZM35,125L75,125L75,135L35,135ZM95,125L135,125L135,135L95,135ZM155,125L165,125L165,135L155,135ZM175,125L275,125L275,135L175,135ZM295,125L305,125L305,135L295,135ZM15,135L25,135L25,145L15,145ZM35,135L55,135L55,145L35,145ZM75,135L95,135L95,145L75,145ZM105,135L115,135L115,145L105,145ZM125,135L135,135L135,145L125,145ZM165,135L195,135L195,145L165,145ZM235,135L255,135L255,145L235,145ZM35,145L55,145L55,155L35,155ZM65,145L75,145L75,155L65,155ZM115,145L125,145L125,155L115,155ZM135,145L175,145L175,155L135,155ZM195,145L205,145L205,155L195,155ZM215,145L275,145L275,155L215,155ZM285,145L295,145L295,155L285,155ZM25,155L35,155L35,165L25,165ZM45,155L65,155L65,165L45,165ZM75,155L95,155L95,165L75,165ZM115,155L125,155L125,165L115,165ZM145,155L165,155L165,165L145,165ZM185,155L195,155L195,165L185,165ZM205,155L215,155L215,165L205,165ZM265,155L305,155L305,165L265,165ZM15,165L25,165L25,175L15,175ZM35,165L45,165L45,175L35,175ZM65,165L75,165L75,175L65,175ZM85,165L105,165L105,175L85,175ZM135,165L155,165L155,175L135,175ZM175,165L185,165L185,175L175,175ZM195,165L265,165L265,175L195,175ZM285,165L305,165L305,175L285,175ZM75,175L85,175L85,185L75,185ZM105,175L125,175L125,185L105,185ZM135,175L145,175L145,185L135,185ZM155,175L185,175L185,185L155,185ZM225,175L235,175L235,185L225,185ZM245,175L265,175L265,185L245,185ZM15,185L25,185L25,195L15,195ZM55,185L75,185L75,195L55,195ZM95,185L125,185L125,195L95,195ZM235,185L245,185L245,195L235,195ZM255,185L275,185L275,195L255,195ZM295,185L305,185L305,195L295,195ZM15,195L25,195L25,205L15,205ZM35,195L65,195L65,205L35,205ZM75,195L95,195L95,205L75,205ZM125,195L145,195L145,205L125,205ZM165,195L195,195L195,205L165,205ZM215,195L225,195L225,205L215,205ZM265,195L295,195L295,205L265,205ZM15,205L25,205L25,215L15,215ZM55,205L75,205L75,215L55,215ZM95,205L115,205L115,215L95,215ZM125,205L135,205L135,215L125,215ZM155,205L165,205L165,215L155,215ZM175,205L185,205L185,215L175,215ZM205,205L265,205L265,215L205,215ZM285,205L305,205L305,215L285,215ZM15,215L25,215L25,225L15,225ZM35,215L55,215L55,225L35,225ZM75,215L85,215L85,225L75,225ZM95,215L105,215L105,225L95,225ZM115,215L135,215L135,225L115,225ZM165,215L205,215L205,225L165,225ZM215,215L295,215L295,225L215,225ZM95,225L105,225L105,235L95,235ZM115,225L125,225L125,235L115,235ZM135,225L165,225L165,235L135,235ZM175,225L185,225L185,235L175,235ZM205,225L225,225L225,235L205,235ZM255,225L265,225L265,235L255,235ZM285,225L295,225L295,235L285,235ZM15,235L85,235L85,245L15,245ZM95,235L105,235L105,245L95,245ZM145,235L165,235L165,245L145,245ZM185,235L205,235L205,245L185,245ZM215,235L225,235L225,245L215,245ZM235,235L245,235L245,245L235,245ZM255,235L285,235L285,245L255,245ZM15,245L25,245L25,255L15,255ZM75,245L85,245L85,255L75,255ZM115,245L125,245L125,255L115,255ZM135,245L155,245L155,255L135,255ZM185,245L225,245L225,255L185,255ZM255,245L265,245L265,255L255,255ZM275,245L305,245L305,255L275,255ZM15,255L25,255L25,265L15,265ZM35,255L65,255L65,265L35,265ZM75,255L85,255L85,265L75,265ZM95,255L115,255L115,265L95,265ZM135,255L145,255L145,265L135,265ZM155,255L195,255L195,265L155,265ZM205,255L265,255L265,265L205,265ZM275,255L305,255L305,265L275,265ZM15,265L25,265L25,275L15,275ZM35,265L65,265L65,275L35,275ZM75,265L85,265L85,275L75,275ZM95,265L125,265L125,275L95,275ZM165,265L175,265L175,275L165,275ZM195,265L205,265L205,275L195,275ZM215,265L225,265L225,275L215,275ZM245,265L255,265L255,275L245,275ZM15,275L25,275L25,285L15,285ZM35,275L65,275L65,285L35,285ZM75,275L85,275L85,285L75,285ZM95,275L115,275L115,285L95,285ZM125,275L145,275L145,285L125,285ZM185,275L195,275L195,285L185,285ZM205,275L215,275L215,285L205,285ZM245,275L255,275L255,285L245,285ZM275,275L295,275L295,285L275,285ZM15,285L25,285L25,295L15,295ZM75,285L85,285L85,295L75,295ZM95,285L135,285L135,295L95,295ZM155,285L165,285L165,295L155,295ZM175,285L185,285L185,295L175,295ZM195,285L215,285L215,295L195,295ZM265,285L285,285L285,295L265,295ZM295,285L305,285L305,295L295,295ZM15,295L85,295L85,305L15,305ZM95,295L105,295L105,305L95,305ZM115,295L135,295L135,305L115,305ZM165,295L215,295L215,305L165,305ZM225,295L245,295L245,305L225,305ZM255,295L285,295L285,305L255,305Z"/></svg>
