<?xml version="1.0"?>
<svg xmlns="http://www.w3.org/2000/svg" xmlns:xlink="http://www.w3.org/1999/xlink" version="1.1" width="320px" height="320px" viewBox="0 0 320 320"><rect x="0" y="0" width="320" height="320" fill="#ffffff" fill-opacity="1"/><path fill="#000000" fill-opacity="1" d="M15,15L85,15L85,25L15,25ZM105,15L115,15L115,25L105,25ZM155,15L175,15L175,25L155,25ZM235,15L305,15L305,25L235,25ZM15,25L25,25L25,35L15,35ZM75,25L85,25L85,35L75,35ZM95,25L115,25L115,35L95,35ZM125,25L145,25L145,35L125,35ZM175,25L185,25L185,35L175,35ZM215,25L225,25L225,35L215,35ZM235,25L245,25L245,35L235,35ZM295,25L305,25L305,35L295,35ZM15,35L25,35L25,45L15,45ZM35,35L65,35L65,45L35,45ZM75,35L85,35L85,45L75,45ZM105,35L135,35L135,45L105,45ZM185,35L205,35L205,45L185,45ZM215,35L225,35L225,45L215,45ZM235,35L245,35L245,45L235,45ZM255,35L285,35L285,45L255,45ZM295,35L305,35L305,45L295,45ZM15,45L25,45L25,55L15,55ZM35,45L65,45L65,55L35,55ZM75,45L85,45L85,55L75,55ZM95,45L115,45L115,55L95,55ZM125,45L135,45L135,55L125,55ZM165,45L175,45L175,55L165,55ZM215,45L225,45L225,55L215,55ZM235,45L245,45L245,55L235,55ZM255,45L285,45L285,55L255,55ZM295,45L305,45L305,55L295,55ZM15,55L25,55L25,65L15,65ZM35,55L65,55L65,65L35,65ZM75,55L85,55L85,65L75,65ZM115,55L125,55L125,65L115,65ZM135,55L155,55L155,65L135,65ZM165,55L175,55L175,65L165,65ZM195,55L205,55L205,65L195,65ZM235,55L245,55L245,65L235,65ZM255,55L285,55L285,65L255,65ZM295,55L305,55L305,65L295,65ZM15,65L25,65L25,75L15,75ZM75,65L85,65L85,75L75,75ZM95,65L105,65L105,75L95,75ZM115,65L125,65L125,75L115,75ZM145,65L165,65L165,75L145,75ZM175,65L195,65L195,75L175,75ZM205,65L225,65L225,75L205,75ZM235,65L245,65L245,75L235,75ZM295,65L305,65L305,75L295,75ZM15,75L85,75L85,85L15,85ZM95,75L105,75L105,85L95,85ZM115,75L125,75L125,85L115,85ZM135,75L145,75L145,85L135,85ZM155,75L165,75L165,85L155,85ZM175,75L185,75L185,85L175,85ZM195,75L205,75L205,85L195,85ZM215,75L225,75L225,85L215,85ZM235,75L305,75L305,85L235,85ZM135,85L155,85L155,95L135,95ZM185,85L215,85L215,95L185,95ZM15,95L65,95L65,105L15,105ZM75,95L125,95L125,105L75,105ZM135,95L145,95L145,105L135,105ZM155,95L205,95L205,105L155,105ZM215,95L235,95L235,105L215,105ZM245,95L255,95L255,105L245,105ZM265,95L275,95L275,105L265,105ZM285,95L295,95L295,105L285,105ZM25,105L35,105L35,115L25,115ZM65,105L75,105L75,115L65,115ZM85,105L95,105L95,115L85,115ZM105,105L115,105L115,115L105,115ZM165,105L185,105L185,115L165,115ZM215,105L245,105L245,115L215,115ZM255,105L275,105L275,115L255,115ZM285,105L295,105L295,115L285,115ZM25,115L35,115L35,125L25,125ZM45,115L65,115L65,125L45,125ZM75,115L85,115L85,125L75,125ZM95,115L115,115L115,125L95,125ZM125,115L145,115L145,125L125,125ZM165,115L175,115L175,125L165,125ZM185,115L195,115L195,125L185,125ZM205,115L215,115L215,125L205,125ZM245,115L255,115L255,125L245,125ZM265,115L285,115L285,125L265,125ZM25,125L55,125L55,135L25,135ZM95,125L135,125L135,135L95,135ZM155,125L185,125L185,135L155,135ZM195,125L275,125L275,135L195,135ZM295,125L305,125L305,135L295,135ZM25,135L45,135L45,145L25,145ZM75,135L115,135L115,145L75,145ZM125,135L135,135L135,145L125,145ZM165,135L185,135L185,145L165,145ZM215,135L225,135L225,145L215,145ZM235,135L255,135L255,145L235,145ZM35,145L55,145L55,155L35,155ZM85,145L105,145L105,155L85,155ZM115,145L125,145L125,155L115,155ZM135,145L165,145L165,155L135,155ZM195,145L225,145L225,155L195,155ZM245,145L255,145L255,155L245,155ZM265,145L275,145L275,155L265,155ZM285,145L295,145L295,155L285,155ZM25,155L35,155L35,165L25,165ZM45,155L65,155L65,165L45,165ZM75,155L95,155L95,165L75,165ZM105,155L125,155L125,165L105,165ZM145,155L185,155L185,165L145,165ZM205,155L215,155L215,165L205,165ZM265,155L305,155L305,165L265,165ZM15,165L25,165L25,175L15,175ZM35,165L45,165L45,175L35,175ZM65,165L75,165L75,175L65,175ZM85,165L125,165L125,175L85,175ZM135,165L155,165L155,175L135,175ZM175,165L215,165L215,175L175,175ZM235,165L265,165L265,175L235,175ZM285,165L305,165L305,175L285,175ZM45,175L55,175L55,185L45,185ZM65,175L85,175L85,185L65,185ZM115,175L125,175L125,185L115,185ZM135,175L145,175L145,185L135,185ZM155,175L175,175L175,185L155,185ZM195,175L205,175L205,185L195,185ZM215,175L235,175L235,185L215,185ZM15,185L25,185L25,195L15,195ZM115,185L125,185L125,195L115,195ZM195,185L205,185L205,195L195,195ZM215,185L225,185L225,195L215,195ZM235,185L275,185L275,195L235,195ZM295,185L305,185L305,195L295,195ZM15,195L25,195L25,205L15,205ZM35,195L45,195L45,205L35,205ZM75,195L85,195L85,205L75,205ZM115,195L145,195L145,205L115,205ZM165,195L175,195L175,205L165,205ZM185,195L195,195L195,205L185,205ZM225,195L235,195L235,205L225,205ZM265,195L295,195L295,205L265,205ZM15,205L25,205L25,215L15,215ZM35,205L45,205L45,215L35,215ZM115,205L135,205L135,215L115,215ZM155,205L185,205L185,215L155,215ZM195,205L265,205L265,215L195,215ZM285,205L305,205L305,215L285,215ZM15,215L25,215L25,225L15,225ZM35,215L55,215L55,225L35,225ZM75,215L85,215L85,225L75,225ZM95,215L115,215L115,225L95,225ZM125,215L135,215L135,225L125,225ZM165,215L175,215L175,225L165,225ZM215,215L295,215L295,225L215,225ZM95,225L105,225L105,235L95,235ZM115,225L125,225L125,235L115,235ZM135,225L175,225L175,235L135,235ZM195,225L205,225L205,235L195,235ZM215,225L225,225L225,235L215,235ZM255,225L265,225L265,235L255,235ZM285,225L295,225L295,235L285,235ZM15,235L85,235L85,245L15,245ZM95,235L105,235L105,245L95,245ZM145,235L165,235L165,245L145,245ZM185,235L195,235L195,245L185,245ZM215,235L225,235L225,245L215,245ZM235,235L245,235L245,245L235,245ZM255,235L285,235L285,245L255,245ZM15,245L25,245L25,255L15,255ZM75,245L85,245L85,255L75,255ZM105,245L125,245L125,255L105,255ZM135,245L155,245L155,255L135,255ZM165,245L195,245L195,255L165,255ZM205,245L225,245L225,255L205,255ZM255,245L265,245L265,255L255,255ZM275,245L305,245L305,255L275,255ZM15,255L25,255L25,265L15,265ZM35,255L65,255L65,265L35,265ZM75,255L85,255L85,265L75,265ZM95,255L125,255L125,265L95,265ZM135,255L145,255L145,265L135,265ZM155,255L185,255L185,265L155,265ZM195,255L265,255L265,265L195,265ZM275,255L305,255L305,265L275,265ZM15,265L25,265L25,275L15,275ZM35,265L65,265L65,275L35,275ZM75,265L85,265L85,275L75,275ZM95,265L105,265L105,275L95,275ZM115,265L125,265L125,275L115,275ZM165,265L175,265L175,275L165,275ZM215,265L225,265L225,275L215,275ZM235,265L255,265L255,275L235,275ZM15,275L25,275L25,285L15,285ZM35,275L65,275L65,285L35,285ZM75,275L85,275L85,285L75,285ZM95,275L105,275L105,285L95,285ZM125,275L145,275L145,285L125,285ZM165,275L175,275L175,285L165,285ZM205,275L215,275L215,285L205,285ZM225,275L255,275L255,285L225,285ZM275,275L295,275L295,285L275,285ZM15,285L25,285L25,295L15,295ZM75,285L85,285L85,295L75,295ZM95,285L115,285L115,295L95,295ZM125,285L135,285L135,295L125,295ZM155,285L165,285L165,295L155,295ZM175,285L185,285L185,295L175,295ZM205,285L225,285L225,295L205,295ZM265,285L285,285L285,295L265,295ZM295,285L305,285L305,295L295,295ZM15,295L85,295L85,305L15,305ZM95,295L105,295L105,305L95,305ZM125,295L135,295L135,305L125,305ZM165,295L175,295L175,305L165,305ZM205,295L215,295L215,305L205,305ZM225,295L245,295L245,305L225,305ZM255,295L285,295L285,305L255,305Z"/></svg>
